<?xml version="1.0" encoding="UTF-8"?>
<svg version="1.1" xmlns="http://www.w3.org/2000/svg" width="1024" height="1024">
<path d="M0 0 C337.92 0 675.84 0 1024 0 C1024 337.92 1024 675.84 1024 1024 C686.08 1024 348.16 1024 0 1024 C0 686.08 0 348.16 0 0 Z " fill="#FCFDFD" transform="translate(0,0)"/>
<path d="M0 0 C4.35550991 3.09911282 7.51920022 6.12010065 9.25 11.3125 C9.7616518 17.5802346 9.93819272 22.97097951 6.25 28.3125 C2.91404725 32.17518214 1.13684108 33.35776357 -3.75 35.3125 C-3.75 63.3625 -3.75 91.4125 -3.75 120.3125 C-2.43 120.6425 -1.11 120.9725 0.25 121.3125 C4.91858549 124.39477042 8.45810842 127.93682525 10.25 133.3125 C11.19410144 140.57277304 9.40340229 145.7511039 5.625 152 C1.39915771 156.11463592 -3.89049847 158.47376618 -9.8125 158.8125 C-17.36734833 157.85315418 -21.90375091 154.78547571 -26.62109375 148.8984375 C-27.75 147.3125 -27.75 147.3125 -28.75 145.3125 C-72.31 144.8175 -72.31 144.8175 -116.75 144.3125 C-117.08 145.9625 -117.41 147.6125 -117.75 149.3125 C-121.75956516 153.98720331 -126.57586319 157.80483471 -132.7734375 158.55859375 C-138.55845811 158.88437136 -143.09162148 157.83564342 -147.75 154.3125 C-152.94604174 148.80017746 -155.15583934 144.1317473 -155.02734375 136.46484375 C-154.34566391 131.17462414 -151.74738301 126.89716398 -147.75 123.4375 C-144.75 121.3125 -144.75 121.3125 -140.75 119.3125 C-140.75 91.9225 -140.75 64.5325 -140.75 36.3125 C-142.73 35.3225 -144.71 34.3325 -146.75 33.3125 C-151.03679976 29.44705235 -154.36602123 25.06152904 -154.96484375 19.21484375 C-155.23869373 12.6533982 -153.78545937 8.61578297 -149.375 3.625 C-143.63122441 -1.43499278 -139.55118993 -2.2898769 -131.984375 -2.1015625 C-126.54254977 -1.40490371 -122.96635903 0.78673472 -119.37890625 4.875 C-117.48214667 7.50027278 -116.75 9.03929229 -116.75 12.3125 C-116.06271317 12.28744385 -115.37542633 12.2623877 -114.66731262 12.23657227 C-108.03954295 11.99589611 -101.41160795 11.76044162 -94.78346729 11.53019714 C-91.37970784 11.41179251 -87.97606815 11.29111388 -84.57250977 11.16699219 C-65.61536413 10.47725754 -46.71798482 10.17296935 -27.75 10.3125 C-27.30188965 9.12853638 -27.30188965 9.12853638 -26.84472656 7.9206543 C-24.78242364 3.00727737 -20.53681079 0.2059054 -15.875 -2.125 C-10.27886843 -3.13230368 -5.08587216 -2.64819923 0 0 Z " fill="#3C91E6" transform="translate(305.75,418.6875)"/>
<path d="M0 0 C5.28 0 10.56 0 16 0 C19.59021466 3.88383816 21.14377288 6.13333447 23.25 10.75 C24.38059207 12.94645685 25.51344647 15.14175052 26.6484375 17.3359375 C27.19854492 18.44807617 27.74865234 19.56021484 28.31542969 20.70605469 C30.90087251 25.76153216 33.88195981 30.55357543 36.875 35.375 C37.87767297 37.00457726 38.87557492 38.63710636 39.8671875 40.2734375 C40.28081543 40.94810059 40.69444336 41.62276367 41.12060547 42.31787109 C42 44 42 44 42 46 C44.75513436 43.53130845 46.39971224 40.82225209 48.22265625 37.6171875 C48.83802246 36.53937012 49.45338867 35.46155273 50.08740234 34.35107422 C50.73918457 33.20396973 51.3909668 32.05686523 52.0625 30.875 C52.74558185 29.69861073 53.42999758 28.52299501 54.11572266 27.34814453 C57.13950095 22.14841899 60.08566919 16.96576958 62.61328125 11.5 C63.00314209 10.7073877 63.39300293 9.91477539 63.79467773 9.09814453 C64.89358451 6.91325326 64.89358451 6.91325326 65.71118164 4.72607422 C66.6796875 2.8046875 66.6796875 2.8046875 70 0 C75.61 0 81.22 0 87 0 C87 26.73 87 53.46 87 81 C82.38 81 77.76 81 73 81 C72.67 62.19 72.34 43.38 72 24 C67.38 31.92 62.76 39.84 58 48 C55.39026148 52.34496149 52.77782756 56.68216592 50.125 61 C49.52042969 61.98871094 48.91585937 62.97742188 48.29296875 63.99609375 C46.864162 66.3320794 45.43326457 68.66674799 44 71 C39.94063275 69.64687758 39.45415271 67.83630501 37.33984375 64.15625 C36.99047256 63.5542981 36.64110138 62.95234619 36.28114319 62.33215332 C35.15806428 60.39288344 34.04754936 58.44675179 32.9375 56.5 C32.21763955 55.2508161 31.49694382 54.00211315 30.77539062 52.75390625 C28.51409972 48.83756866 26.25711931 44.91874331 24 41 C20.7 35.39 17.4 29.78 14 24 C13.67 42.81 13.34 61.62 13 81 C8.71 81 4.42 81 0 81 C0 54.27 0 27.54 0 0 Z " fill="#030F15" transform="translate(379,421)"/>
<path d="M0 0 C3.03590911 1.01618424 4.97049033 2.73831006 7.171875 5.01171875 C8.04585937 5.90213867 8.04585937 5.90213867 8.9375 6.81054688 C9.8346875 7.73963867 9.8346875 7.73963867 10.75 8.6875 C14.33396309 12.37850623 17.92136336 15.98426976 21.828125 19.3359375 C26.80013293 23.62113417 31.38408492 28.27549668 36 32.9375 C36.87011719 33.81212891 37.74023438 34.68675781 38.63671875 35.58789062 C40.76013549 37.72297449 42.88116378 39.86037205 45 42 C37.98925647 50.38360818 30.27430545 58.05986677 22.58666992 65.81835938 C20.81250068 67.6142745 19.04463259 69.41643523 17.28295898 71.22460938 C14.73282339 73.84129908 12.16386226 76.43807687 9.58984375 79.03125 C8.40998146 80.25285828 8.40998146 80.25285828 7.20628357 81.49914551 C6.4652388 82.23741577 5.72419403 82.97568604 4.96069336 83.73632812 C4.31482773 84.39250122 3.6689621 85.04867432 3.00352478 85.72473145 C1 87 1 87 -4 86 C-4 58.28 -4 30.56 -4 2 C-2.68 1.34 -1.36 0.68 0 0 Z " fill="#FBFCFD" transform="translate(181,452)"/>
<path d="M0 0 C5.60560206 4.67576065 10.82199294 9.64652484 15.99609375 14.79296875 C17.24641136 16.03473625 17.24641136 16.03473625 18.52198792 17.30158997 C20.27052322 19.04072934 22.01764808 20.78128783 23.76342773 22.52319336 C26.44654461 25.19651158 29.1401334 27.85898858 31.83398438 30.52148438 C33.53450985 32.21548788 35.23440252 33.91012692 36.93359375 35.60546875 C37.74283798 36.40236618 38.55208221 37.19926361 39.385849 38.02030945 C40.12404373 38.76150528 40.86223846 39.50270111 41.62280273 40.26635742 C42.27675522 40.91666428 42.9307077 41.56697113 43.60447693 42.23698425 C45 44 45 44 45 47 C15.32887444 47.97742625 -14.31450823 48.11863246 -44 48 C-44 44 -44 44 -42.32958984 41.84857178 C-41.15710693 40.68941254 -41.15710693 40.68941254 -39.9609375 39.50683594 C-39.08002441 38.62622498 -38.19911133 37.74561401 -37.29150391 36.83831787 C-36.31954711 35.88678782 -35.347374 34.9354787 -34.375 33.984375 C-33.3876399 33.00447613 -32.40115995 32.02368967 -31.41552734 31.04205322 C-28.82017402 28.46196553 -26.21303336 25.89411487 -23.60327148 23.32861328 C-20.94184494 20.70811929 -18.29171918 18.07625178 -15.640625 15.4453125 C-10.43808934 10.28566408 -5.22305124 5.13888851 0 0 Z " fill="#FCFDFD" transform="translate(234,503)"/>
<path d="M0 0 C1.98 0.66 3.96 1.32 6 2 C6 29.72 6 57.44 6 86 C1.65527684 84.91381921 0.65988252 84.02746972 -2.40136719 80.93920898 C-3.6922525 79.64798378 -3.6922525 79.64798378 -5.00921631 78.33067322 C-5.92914368 77.39526199 -6.84907104 76.45985077 -7.796875 75.49609375 C-8.7545722 74.53279924 -9.71293547 73.57016651 -10.67193604 72.60816956 C-13.19059231 70.07807517 -15.70010838 67.53910072 -18.20782471 64.99816895 C-20.76980732 62.40546323 -23.34033501 59.82126044 -25.91015625 57.23632812 C-30.94849841 52.1658401 -35.97723334 47.0859212 -41 42 C-36.5021065 36.60809603 -31.73873458 31.60608316 -26.7578125 26.66015625 C-25.98944061 25.89319931 -25.22106873 25.12624237 -24.42941284 24.33604431 C-21.99696491 21.9091526 -19.56104678 19.48577873 -17.125 17.0625 C-15.46591448 15.40843514 -13.80705798 13.75414055 -12.1484375 12.09960938 C-8.10160291 8.06374567 -4.05192047 4.03075723 0 0 Z " fill="#FBFCFD" transform="translate(284,453)"/>
<path d="M0 0 C3.96 0 7.92 0 12 0 C12.46897705 0.82201904 12.9379541 1.64403809 13.42114258 2.4909668 C15.17070338 5.55697308 16.92075815 8.62269632 18.67114258 11.68823242 C19.42687299 13.01201346 20.18240957 14.33590517 20.93774414 15.65991211 C22.02698959 17.56914325 23.11694443 19.4779679 24.20703125 21.38671875 C24.54152786 21.97337814 24.87602448 22.56003754 25.22065735 23.16447449 C26.68815849 25.73268805 28.17283424 28.27743357 29.73706055 30.78833008 C31 33 31 33 31 35 C31.66 35 32.32 35 33 35 C33.39747437 33.94135742 33.39747437 33.94135742 33.80297852 32.86132812 C35.06635965 29.84137566 36.54662969 27.07108164 38.15234375 24.21875 C38.76400391 23.12949219 39.37566406 22.04023437 40.00585938 20.91796875 C40.64330078 19.79003906 41.28074219 18.66210938 41.9375 17.5 C42.57107422 16.37207031 43.20464844 15.24414062 43.85742188 14.08203125 C46.51924704 9.35176361 49.20703534 4.65494111 52 0 C55.96 0 59.92 0 64 0 C64 20.46 64 40.92 64 62 C60.7 62 57.4 62 54 62 C53.67 47.81 53.34 33.62 53 19 C48.2870472 27.1953415 48.2870472 27.1953415 43.57739258 35.39257812 C40.15572724 41.33301426 36.68478389 47.21882449 33 53 C29.02228713 51.67409571 28.60733522 50.07351339 26.56640625 46.4609375 C25.91736328 45.32269531 25.26832031 44.18445313 24.59960938 43.01171875 C23.92034849 41.79960491 23.24131376 40.5873643 22.5625 39.375 C21.88820876 38.18572185 21.21308723 36.99691405 20.53710938 35.80859375 C19.28179639 33.59655561 18.0301708 31.38241792 16.78344727 29.16552734 C14.86984055 25.76897366 12.93420817 22.3848643 11 19 C10.67 33.19 10.34 47.38 10 62 C6.7 62 3.4 62 0 62 C0 41.54 0 21.08 0 0 Z " fill="#020D12" transform="translate(379,524)"/>
<path d="M0 0 C28.71 0 57.42 0 87 0 C85.92544498 3.22366505 85.29693158 3.82638112 82.75 5.875 C79.6243442 8.40595138 76.83551675 11.14629583 74 14 C72.89321197 15.1075673 71.78600848 16.21471953 70.6784668 17.3215332 C70.07822189 17.92177811 69.47797699 18.52202301 68.85954285 19.14045715 C60.57302856 27.42697144 52.28651428 35.71348572 44 44 C38.45569952 39.37936741 33.31781443 34.463966 28.22265625 29.35546875 C27.41130722 28.54507645 26.59995819 27.73468414 25.76402283 26.8997345 C24.06272598 25.19911444 22.3626764 23.49724579 20.66381836 21.79418945 C18.04980335 19.17477713 15.43044145 16.56079589 12.81054688 13.94726562 C11.15592889 12.29198759 9.50162073 10.63639978 7.84765625 8.98046875 C7.0602858 8.19512253 6.27291534 7.40977631 5.46168518 6.60063171 C4.7435112 5.87930557 4.02533722 5.15797943 3.28540039 4.41479492 C2.6492128 3.77781174 2.01302521 3.14082855 1.3575592 2.48454285 C0 1 0 1 0 0 Z " fill="#FCFDFD" transform="translate(191,442)"/>
<path d="M0 0 C2.88054209 1.78394228 5.37016718 3.55376093 7.76953125 5.953125 C8.65640625 5.169375 9.54328125 4.385625 10.45703125 3.578125 C14.99415054 -0.15521558 18.71342339 -1.48522968 24.71875 -1.29296875 C29.75616657 -0.68847876 33.00213912 1.20278603 36.58203125 4.703125 C40.32914925 10.27027175 41.02161062 15.58587873 40.96484375 22.19921875 C40.96201385 22.85519547 40.95918396 23.51117218 40.95626831 24.18702698 C40.94519109 26.25508909 40.92011188 28.32269673 40.89453125 30.390625 C40.88448527 31.80403015 40.87536227 33.21744217 40.8671875 34.63085938 C40.84529309 38.07175894 40.81085176 41.51239752 40.76953125 44.953125 C37.13953125 44.953125 33.50953125 44.953125 29.76953125 44.953125 C29.73980225 43.6213623 29.73980225 43.6213623 29.70947266 42.26269531 C29.63124893 38.96001166 29.5445524 35.65777436 29.45214844 32.35546875 C29.41393101 30.92782102 29.37906553 29.50007937 29.34765625 28.07226562 C29.30184724 26.01658632 29.24388145 23.96154946 29.18359375 21.90625 C29.15217285 20.67036133 29.12075195 19.43447266 29.08837891 18.16113281 C28.79019327 15.16101083 28.40285282 13.44558405 26.76953125 10.953125 C24.15385376 8.91870918 22.62976563 8.953125 19.26953125 8.953125 C15.60938765 9.64255568 15.60938765 9.64255568 13.58886719 12.58251953 C11.55970488 16.3418613 11.23522758 18.64128254 11.16015625 22.8828125 C11.12792969 24.171875 11.09570312 25.4609375 11.0625 26.7890625 C11.04775895 28.13541215 11.03344125 29.4817665 11.01953125 30.828125 C10.99134413 32.19795403 10.96141288 33.56774835 10.9296875 34.9375 C10.85915368 38.27610102 10.8063714 41.61401015 10.76953125 44.953125 C7.46953125 44.953125 4.16953125 44.953125 0.76953125 44.953125 C0.75494873 44.13634277 0.74036621 43.31956055 0.7253418 42.47802734 C0.65066202 38.7609274 0.55406513 35.04470581 0.45703125 31.328125 C0.43447266 30.04292969 0.41191406 28.75773438 0.38867188 27.43359375 C0.33549805 25.56767578 0.33549805 25.56767578 0.28125 23.6640625 C0.24197388 21.95162354 0.24197388 21.95162354 0.2019043 20.20458984 C-0.28605897 16.53508407 -1.3036502 14.10207105 -3.23046875 10.953125 C-6.11646263 8.59693958 -6.11646263 8.59693958 -9.73046875 9.140625 C-13.10809409 9.9247166 -14.2636086 10.22137479 -16.23046875 12.953125 C-17.68009058 15.85236866 -17.45173356 18.47612855 -17.546875 21.7109375 C-17.5676561 22.37398895 -17.58843719 23.03704041 -17.60984802 23.72018433 C-17.67526106 25.83939194 -17.7341898 27.958724 -17.79296875 30.078125 C-17.83616184 31.51433581 -17.87977639 32.95053402 -17.92382812 34.38671875 C-18.03093374 37.90872094 -18.1322245 41.43086325 -18.23046875 44.953125 C-21.86046875 44.953125 -25.49046875 44.953125 -29.23046875 44.953125 C-29.23046875 30.103125 -29.23046875 15.253125 -29.23046875 -0.046875 C-25.60046875 -0.046875 -21.97046875 -0.046875 -18.23046875 -0.046875 C-17.90046875 0.943125 -17.57046875 1.933125 -17.23046875 2.953125 C-16.63234375 2.47875 -16.03421875 2.004375 -15.41796875 1.515625 C-10.80909124 -1.77643037 -5.12343188 -2.40469307 0 0 Z " fill="#061116" transform="translate(659.23046875,541.046875)"/>
<path d="M0 0 C4.29 0 8.58 0 13 0 C13 22.77 13 45.54 13 69 C24.55 69 36.1 69 48 69 C48 72.96 48 76.92 48 81 C32.16 81 16.32 81 0 81 C0 54.27 0 27.54 0 0 Z " fill="#010E13" transform="translate(481,421)"/>
<path d="M0 0 C2.42881204 2.44383562 4.27867817 5.02257846 6 8 C6.37769531 8.62519531 6.75539063 9.25039063 7.14453125 9.89453125 C8.24016934 12.59110172 8.23011497 14.7858077 8.1875 17.6875 C8.18105469 18.66074219 8.17460938 19.63398437 8.16796875 20.63671875 C8 23 8 23 7 24 C4.55391002 24.15980437 2.13268942 24.25929447 -0.31640625 24.31640625 C-1.04746078 24.33718735 -1.77851532 24.35796844 -2.53172302 24.37937927 C-4.87521656 24.44495024 -7.21882539 24.50379432 -9.5625 24.5625 C-11.14779855 24.60567808 -12.73308529 24.64929213 -14.31835938 24.69335938 C-18.21212037 24.8006392 -22.10599772 24.9018849 -26 25 C-23.9483366 29.5959217 -23.9483366 29.5959217 -20.25 32.875 C-16.52615442 34.16402347 -13.91603245 34.42720354 -10 34 C-7.12694028 32.59539303 -5.25489001 31.25489001 -3 29 C-0.6171875 28.8046875 -0.6171875 28.8046875 2.125 28.875 C3.03507813 28.89304687 3.94515625 28.91109375 4.8828125 28.9296875 C5.58148437 28.95289063 6.28015625 28.97609375 7 29 C5.92410887 34.02082526 3.96997425 36.58091766 0.0546875 39.67578125 C-5.59692025 43.31816723 -12.31739325 45.12656972 -19 44 C-27.28798975 41.62392103 -31.60386795 37.07342448 -35.875 29.8125 C-38.02836727 22.51497758 -38.1350428 15.62160355 -34.9375 8.625 C-31.75826772 3.03889131 -27.90918232 -0.60865193 -22.125 -3.375 C-14.13269716 -4.97346057 -7.08214349 -4.32864458 0 0 Z " fill="#040F14" transform="translate(616,544)"/>
<path d="M0 0 C4.00751513 2.98143638 6.10117764 6.52869353 7.6171875 11.203125 C7.84423828 14.70825195 7.84423828 14.70825195 7.8125 18.69140625 C7.8096701 19.39460495 7.80684021 20.09780365 7.80392456 20.8223114 C7.79278901 23.05359392 7.76769747 25.28446517 7.7421875 27.515625 C7.7321491 29.03449938 7.72302476 30.5533801 7.71484375 32.07226562 C7.69287163 35.78268421 7.65838797 39.49286442 7.6171875 43.203125 C4.3171875 43.203125 1.0171875 43.203125 -2.3828125 43.203125 C-2.7128125 41.883125 -3.0428125 40.563125 -3.3828125 39.203125 C-4.465625 40.13125 -4.465625 40.13125 -5.5703125 41.078125 C-10.01941624 44.43967005 -13.59560042 45.68700098 -19.26171875 45.515625 C-24.56764963 44.73390406 -28.3175882 42.37487173 -31.8828125 38.453125 C-33.71500098 34.4833833 -34.36776759 31.49410326 -33.3828125 27.203125 C-30.39618879 22.54750569 -27.49380271 20.20105753 -22.3828125 18.203125 C-19.07930547 17.85739259 -15.82454701 17.9182209 -12.5078125 18.015625 C-11.62867188 18.02916016 -10.74953125 18.04269531 -9.84375 18.05664062 C-7.68983698 18.09175877 -5.53624246 18.14555806 -3.3828125 18.203125 C-3.63835304 16.74203437 -3.91281622 15.28424404 -4.1953125 13.828125 C-4.34613281 13.01601563 -4.49695313 12.20390625 -4.65234375 11.3671875 C-5.25826192 8.84491859 -5.25826192 8.84491859 -8.3828125 7.203125 C-14.74268913 6.67614511 -14.74268913 6.67614511 -20.3828125 9.203125 C-20.7128125 10.193125 -21.0428125 11.183125 -21.3828125 12.203125 C-24.6828125 12.203125 -27.9828125 12.203125 -31.3828125 12.203125 C-31.00943371 6.9758219 -29.27198244 3.64549734 -25.3828125 0.203125 C-17.73734018 -4.47777642 -7.75694514 -4.5704822 0 0 Z " fill="#071217" transform="translate(484.3828125,542.796875)"/>
<path d="M0 0 C4.23595174 4.06305575 6.90914145 7.3029666 7.11352539 13.36987305 C7.1133675 14.75049841 7.10774417 16.13113024 7.09765625 17.51171875 C7.0962413 18.23994339 7.09482635 18.96816803 7.09336853 19.71846008 C7.08777659 22.04151539 7.07522562 24.36447388 7.0625 26.6875 C7.05748396 28.26367048 7.05292123 29.83984248 7.04882812 31.41601562 C7.0378098 35.27738098 7.02055074 39.13867408 7 43 C3.7 43 0.4 43 -3 43 C-3.33 41.68 -3.66 40.36 -4 39 C-5.0828125 39.928125 -5.0828125 39.928125 -6.1875 40.875 C-11.06620939 44.56113598 -14.86574622 45.62382242 -21 45 C-25.57639727 43.33741372 -30.23561286 41.09129296 -33 37 C-34.35190806 32.3787718 -34.50219921 29.10902325 -32.5 24.6875 C-29.02887934 20.95604529 -25.65808808 18.34773509 -20.55712891 17.68041992 C-17.88131683 17.60774293 -15.23728711 17.64986398 -12.5625 17.75 C-11.64017578 17.76804687 -10.71785156 17.78609375 -9.76757812 17.8046875 C-7.51061267 17.85146399 -5.25587388 17.91698129 -3 18 C-3.29648437 16.72125 -3.59296875 15.4425 -3.8984375 14.125 C-4.06520996 13.40570312 -4.23198242 12.68640625 -4.40380859 11.9453125 C-4.91201438 9.85254521 -4.91201438 9.85254521 -6.625 8 C-10.09423603 6.53926904 -13.34833274 6.17376418 -17 7 C-17.78375 7.825 -18.5675 8.65 -19.375 9.5 C-22.44943481 12.42803315 -23.22983721 12.34113017 -27.3125 12.3125 C-28.87642824 12.23259126 -30.43997572 12.1363128 -32 12 C-30.81723528 6.51627266 -29.5316586 3.62532688 -25 0 C-17.23474966 -4.5038452 -7.76013172 -4.71694281 0 0 Z " fill="#030D12" transform="translate(740,543)"/>
<path d="M0 0 C3.3 0 6.6 0 10 0 C10.33 7.26 10.66 14.52 11 22 C12.65 20.68 14.3 19.36 16 18 C21.19796387 16.26734538 25.5407546 16.55480649 30.6875 18.125 C35.34313574 20.76026551 38.08640545 23.77492321 40.12451172 28.73876953 C41.11209153 32.41754565 41.2267744 35.5602975 41.1953125 39.3671875 C41.1924826 40.04677521 41.18965271 40.72636292 41.18673706 41.42654419 C41.17562964 43.57621608 41.15054391 45.72545614 41.125 47.875 C41.11495795 49.34113977 41.10583425 50.80728614 41.09765625 52.2734375 C41.07572159 55.84909631 41.04125814 59.42450594 41 63 C37.7 63 34.4 63 31 63 C30.98018066 62.18321777 30.96036133 61.36643555 30.93994141 60.52490234 C30.84441857 56.8079556 30.73484876 53.09154981 30.625 49.375 C30.5940625 48.08980469 30.563125 46.80460938 30.53125 45.48046875 C30.49257813 44.23652344 30.45390625 42.99257813 30.4140625 41.7109375 C30.36693115 39.99849854 30.36693115 39.99849854 30.31884766 38.25146484 C29.98583741 34.85557625 29.37315173 32.12436751 28 29 C24.28564844 27.76188281 20.85286065 27.30903864 17 28 C14.30894802 30.17574416 12.54467072 31.91065856 11 35 C10.84530633 37.17674783 10.74997894 39.3578348 10.68359375 41.5390625 C10.64169922 42.84101562 10.59980469 44.14296875 10.55664062 45.484375 C10.51682701 46.86458045 10.47711478 48.24478883 10.4375 49.625 C10.39430593 51.01303415 10.35069135 52.40105528 10.30664062 53.7890625 C10.20028 57.19260256 10.09825286 60.59621778 10 64 C6.7 64 3.4 64 0 64 C0 42.88 0 21.76 0 0 Z " fill="#020D13" transform="translate(532,523)"/>
<path d="M0 0 C3.30986295 1.93018702 5.60073351 3.96114891 7.5625 7.3125 C7.8125 10.125 7.8125 10.125 7.5625 12.3125 C4.54036452 12.964713 1.66011699 13.4641316 -1.4375 13.3125 C-2.79136936 11.66247172 -4.12428142 9.9950613 -5.4375 8.3125 C-10.10361477 7.42208544 -13.47648572 7.67182381 -17.4375 10.3125 C-17.4375 11.3025 -17.4375 12.2925 -17.4375 13.3125 C-12.74346957 15.11789632 -8.05069701 16.74866954 -3.25 18.25 C1.0464254 19.66586746 4.35433436 20.99370796 7.5625 24.3125 C9.29241807 27.77233614 8.90520487 31.52297504 8.5625 35.3125 C6.65948993 40.54577771 2.33555913 42.88343822 -2.4375 45.3125 C-4.875 46.125 -4.875 46.125 -7.4375 46.3125 C-8.10523438 46.374375 -8.77296875 46.43625 -9.4609375 46.5 C-16.08891103 46.86193712 -20.99984879 45.28289765 -26.046875 40.921875 C-28.52914018 38.2722661 -29.41421824 36.56394305 -29.75 32.9375 C-29.646875 32.07125 -29.54375 31.205 -29.4375 30.3125 C-26.1375 29.9825 -22.8375 29.6525 -19.4375 29.3125 C-19.169375 30.09625 -18.90125 30.88 -18.625 31.6875 C-17.58935568 34.59364923 -17.58935568 34.59364923 -14.4375 36.3125 C-8.89193682 36.84184825 -8.89193682 36.84184825 -3.9375 34.8125 C-3.4425 34.3175 -2.9475 33.8225 -2.4375 33.3125 C-2.62185343 31.34243798 -2.62185343 31.34243798 -3.4375 29.3125 C-5.24296136 28.27277071 -5.24296136 28.27277071 -7.515625 27.75 C-8.34707031 27.51023437 -9.17851563 27.27046875 -10.03515625 27.0234375 C-10.91042969 26.78882813 -11.78570313 26.55421875 -12.6875 26.3125 C-23.47648541 23.36857894 -23.47648541 23.36857894 -27.4375 19.3125 C-28.64393566 15.69319302 -28.76018559 13.12018995 -28.4375 9.3125 C-23.02810243 -1.29824139 -10.73539324 -5.00446903 0 0 Z " fill="#050F14" transform="translate(886.4375,541.6875)"/>
<path d="M0 0 C3.4709271 1.99393685 5.08262845 3.84546927 7.203125 7.265625 C8.015625 10.640625 8.015625 10.640625 8.203125 13.265625 C4.903125 13.595625 1.603125 13.925625 -1.796875 14.265625 C-2.415625 13.09 -2.415625 13.09 -3.046875 11.890625 C-4.9159381 9.08703034 -5.62756417 8.23402553 -8.796875 7.265625 C-13.79112253 6.8116025 -16.85998601 7.07355284 -20.796875 10.265625 C-24.20676796 14.22847357 -25.40995632 17.19880457 -25.1171875 22.3125 C-24.41553482 26.59086999 -22.53049739 29.4208477 -19.734375 32.640625 C-15.4623648 35.00386469 -11.57073192 35.2078336 -6.796875 34.265625 C-3.77278136 31.99435166 -3.77278136 31.99435166 -1.796875 29.265625 C0.72366095 28.00535702 2.0573348 28.34688055 4.828125 28.703125 C5.64539063 28.80496094 6.46265625 28.90679688 7.3046875 29.01171875 C7.93117188 29.09550781 8.55765625 29.17929687 9.203125 29.265625 C8.03703871 35.92897521 3.44612726 39.48719692 -1.796875 43.265625 C-7.76787218 45.82462379 -14.18052715 46.48928349 -20.3828125 44.390625 C-26.98542239 41.37682109 -31.6928085 37.52454582 -34.9296875 30.97265625 C-37.01314559 24.46888843 -37.06875887 16.05479436 -34.234375 9.765625 C-26.63051336 -2.73790806 -12.92544331 -5.77173884 0 0 Z " fill="#050F14" transform="translate(844.796875,542.734375)"/>
<path d="M0 0 C3.3 0 6.6 0 10 0 C10 4.29 10 8.58 10 13 C13.96 13 17.92 13 22 13 C22 15.97 22 18.94 22 22 C18.04 22 14.08 22 10 22 C10.05980716 26.10576149 10.14676533 30.20779966 10.25 34.3125 C10.27126953 36.06336914 10.27126953 36.06336914 10.29296875 37.84960938 C10.32519531 38.96787109 10.35742188 40.08613281 10.390625 41.23828125 C10.41157227 42.26993408 10.43251953 43.30158691 10.45410156 44.36450195 C10.7705405 47.099491 10.7705405 47.099491 12.80371094 48.81713867 C15.79670492 50.42908352 18.64473911 50.67737876 22 51 C22 53.64 22 56.28 22 59 C14.99351083 59.52548669 9.60119341 59.61497889 3.62109375 55.6796875 C-1.42512767 50.45107254 -1.32155085 45.13735979 -1.26367188 38.23046875 C-1.23853516 37.04066406 -1.21339844 35.85085938 -1.1875 34.625 C-1.17396484 33.41199219 -1.16042969 32.19898438 -1.14648438 30.94921875 C-1.11124582 27.96568794 -1.06197525 24.98307542 -1 22 C-3.97 22 -6.94 22 -10 22 C-10 19.03 -10 16.06 -10 13 C-6.7 13 -3.4 13 0 13 C0 8.71 0 4.42 0 0 Z " fill="#061117" transform="translate(761,528)"/>
<path d="M0 0 C3.3 0 6.6 0 10 0 C10 4.29 10 8.58 10 13 C13.96 13 17.92 13 22 13 C22 15.97 22 18.94 22 22 C17.71 22 13.42 22 9 22 C9.0870652 25.56366857 9.19396885 29.1248562 9.3125 32.6875 C9.33505859 33.69490234 9.35761719 34.70230469 9.38085938 35.74023438 C9.48190384 42.94795635 9.48190384 42.94795635 13 49 C15.23837799 50.01674712 15.23837799 50.01674712 17.6875 50.3125 C18.49574219 50.45300781 19.30398438 50.59351563 20.13671875 50.73828125 C20.75160156 50.82464844 21.36648438 50.91101563 22 51 C22 53.64 22 56.28 22 59 C14.99351083 59.52548669 9.60119341 59.61497889 3.62109375 55.6796875 C-1.42512767 50.45107254 -1.32155085 45.13735979 -1.26367188 38.23046875 C-1.23853516 37.04066406 -1.21339844 35.85085938 -1.1875 34.625 C-1.17396484 33.41199219 -1.16042969 32.19898438 -1.14648438 30.94921875 C-1.11124582 27.96568794 -1.06197525 24.98307542 -1 22 C-3.97 22 -6.94 22 -10 22 C-10 19.03 -10 16.06 -10 13 C-6.7 13 -3.4 13 0 13 C0 8.71 0 4.42 0 0 Z " fill="#040F14" transform="translate(504,528)"/>
<path d="M0 0 C3.63 0 7.26 0 11 0 C11 14.85 11 29.7 11 45 C7.37 45 3.74 45 0 45 C0 30.15 0 15.3 0 0 Z " fill="#001017" transform="translate(792,541)"/>
<path d="M0 0 C0.83144531 0.06123047 1.66289062 0.12246094 2.51953125 0.18554688 C4.55587831 0.33768775 6.59066224 0.51050835 8.625 0.6875 C8.625 1.0175 8.625 1.3475 8.625 1.6875 C5.325 1.6875 2.025 1.6875 -1.375 1.6875 C-1.705 3.0075 -2.035 4.3275 -2.375 5.6875 C-4.685 6.3475 -6.995 7.0075 -9.375 7.6875 C-9.045 10.3275 -8.715 12.9675 -8.375 15.6875 C-4.3936217 17.0146261 -0.52454773 16.75665913 3.625 16.6875 C3.955 18.3375 4.285 19.9875 4.625 21.6875 C5.945 21.0275 7.265 20.3675 8.625 19.6875 C7.5980655 22.99651116 6.58577893 23.7094638 3.5 25.4375 C-2.17885909 27.56560247 -7.13160551 27.49834654 -12.625 25.0625 C-16.43565528 22.91713108 -18.51193161 20.72414817 -20.375 16.6875 C-21.35591118 12.01649437 -20.84612265 9.42189707 -18.25 5.375 C-12.30647276 -0.1809059 -7.74362187 -0.69779049 0 0 Z " fill="#051016" transform="translate(471.375,561.3125)"/>
<path d="M0 0 C2.98055402 1.29589305 4.49588998 2.25583759 6.3125 4.9375 C7 7 7 7 7 11 C-0.92 11 -8.84 11 -17 11 C-13.0806346 1.85481406 -9.67224702 -1.07469411 0 0 Z " fill="#F6F7F7" transform="translate(606,549)"/>
<path d="M0 0 C0 0.99 0 1.98 0 3 C-0.99 3.33 -1.98 3.66 -3 4 C-3.73323796 6.01508358 -3.73323796 6.01508358 -4 8 C-4.53625 8.103125 -5.0725 8.20625 -5.625 8.3125 C-8.6711608 9.19428339 -11.25527994 10.41416174 -14 12 C-14.33 12.99 -14.66 13.98 -15 15 C-18.3 15 -21.6 15 -25 15 C-24.62662121 9.7726969 -22.88916994 6.44237234 -19 3 C-12.89983379 -0.73479564 -7.00440842 -0.31054027 0 0 Z " fill="#060F14" transform="translate(478,540)"/>
<path d="M0 0 C3.63 0 7.26 0 11 0 C11 14.85 11 29.7 11 45 C7.37 45 3.74 45 0 45 C0 30.15 0 15.3 0 0 Z M2 2 C2 15.86 2 29.72 2 44 C4.31 44 6.62 44 9 44 C9 29.81 9 15.62 9 1 C6.6429774 1 4.32495277 1.61250787 2 2 Z " fill="#161D1F" transform="translate(792,541)"/>
<path d="M0 0 C1.25425781 0.02707031 2.50851562 0.05414062 3.80078125 0.08203125 C4.75339844 0.11683594 5.70601563 0.15164063 6.6875 0.1875 C6.51790261 4.59703207 6.36148613 6.56165574 3.0625 9.625 C-1.472242 11.72441759 -4.88040291 11.82752555 -9.6875 10.5625 C-12.14564961 8.48252726 -12.04319242 6.2845372 -12.3125 3.1875 C-8.11677648 0.13095954 -5.13357724 -0.14393207 0 0 Z " fill="#F4F5F6" transform="translate(474.3125,567.8125)"/>
<path d="M0 0 C1.25425781 0.02707031 2.50851562 0.05414062 3.80078125 0.08203125 C4.75339844 0.11683594 5.70601562 0.15164063 6.6875 0.1875 C5.86955777 4.44079959 5.2526542 6.67491829 2 9.625 C-1.86686202 11.44899152 -4.08695297 11.80212502 -8.3125 11.1875 C-11.25 9.1875 -11.25 9.1875 -13.3125 7.1875 C-13.125 5.375 -13.125 5.375 -12.3125 3.1875 C-8.22778743 0.01727532 -5.08094702 -0.14245646 0 0 Z " fill="#F6F6F7" transform="translate(730.3125,567.8125)"/>
<path d="M0 0 C3.4375 0.8125 3.4375 0.8125 5.4375 3.8125 C5.25 7.375 5.25 7.375 4.4375 10.8125 C1.4375 12.8125 1.4375 12.8125 -2.125 12.625 C-5.5625 11.8125 -5.5625 11.8125 -7.5625 8.8125 C-7.375 5.25 -7.375 5.25 -6.5625 1.8125 C-3.5625 -0.1875 -3.5625 -0.1875 0 0 Z " fill="#071116" transform="translate(798.5625,521.1875)"/>
<path d="M0 0 C3.3 0 6.6 0 10 0 C9.67 2.97 9.34 5.94 9 9 C8.67 9 8.34 9 8 9 C8 6.69 8 4.38 8 2 C5.69 2 3.38 2 1 2 C1 21.8 1 41.6 1 62 C3.31 62 5.62 62 8 62 C8 60.35 8 58.7 8 57 C8.33 57 8.66 57 9 57 C9.33 59.31 9.66 61.62 10 64 C6.7 64 3.4 64 0 64 C0 42.88 0 21.76 0 0 Z " fill="#101214" transform="translate(532,523)"/>
<path d="M0 0 C0.33 0 0.66 0 1 0 C1.33 4.62 1.66 9.24 2 14 C-1.4352048 16.29013653 -2.985331 16.17842973 -7 16 C-7 17.32 -7 18.64 -7 20 C-5.02 20 -3.04 20 -1 20 C-1 20.33 -1 20.66 -1 21 C-3.97 21.33 -6.94 21.66 -10 22 C-10 19.03 -10 16.06 -10 13 C-6.7 13 -3.4 13 0 13 C0 8.71 0 4.42 0 0 Z " fill="#0F1B21" transform="translate(504,528)"/>
<path d="M0 0 C0.33 0 0.66 0 1 0 C1.19448477 2.12437212 1.38038289 4.24953191 1.5625 6.375 C1.66691406 7.55835938 1.77132812 8.74171875 1.87890625 9.9609375 C2 13 2 13 1 15 C-1.97 15 -4.94 15 -8 15 C-7.67 17.31 -7.34 19.62 -7 22 C-7.99 22 -8.98 22 -10 22 C-10 19.03 -10 16.06 -10 13 C-6.7 13 -3.4 13 0 13 C0 8.71 0 4.42 0 0 Z " fill="#242A2D" transform="translate(761,528)"/>
<path d="M0 0 C3.87321093 1.57630677 6.24735163 4.07747669 9.125 7.0625 C12.24105765 10.46453483 12.24105765 10.46453483 16 13 C16 13.66 16 14.32 16 15 C16.99 15.33 17.98 15.66 19 16 C19 16.66 19 17.32 19 18 C19.66 18 20.32 18 21 18 C20.67 18.66 20.34 19.32 20 20 C14.40877746 15.2833821 9.37981422 10.29225191 4.4921875 4.84375 C2.07179967 2.63758236 2.07179967 2.63758236 -1.3046875 3.21875 C-2.19414062 3.4765625 -3.08359375 3.734375 -4 4 C-2.68 2.68 -1.36 1.36 0 0 Z " fill="#368CE3" transform="translate(181,450)"/>
<path d="M0 0 C0.33 0 0.66 0 1 0 C1.33 4.62 1.66 9.24 2 14 C-0.62315032 15.31157516 -2.23033436 14.89649988 -5.125 14.5625 C-6.49011719 14.40974609 -6.49011719 14.40974609 -7.8828125 14.25390625 C-8.58148438 14.17011719 -9.28015625 14.08632813 -10 14 C-10 13.67 -10 13.34 -10 13 C-6.7 13 -3.4 13 0 13 C0 8.71 0 4.42 0 0 Z " fill="#41484D" transform="translate(504,528)"/>
<path d="M0 0 C0.66 0.33 1.32 0.66 2 1 C1.5359375 1.7734375 1.5359375 1.7734375 1.0625 2.5625 C-0.29059287 5.66665423 -0.61359424 8.65115007 -1 12 C-1.66 11.34 -2.32 10.68 -3 10 C-2.69903201 5.86169011 -2.32101984 3.48152976 0 0 Z " fill="#01080C" transform="translate(583,550)"/>
<path d="M0 0 C-3.25179812 2.21713508 -6.4213696 4.34832443 -10 6 C-8.20404732 1.26521567 -5.07984355 -1.69328118 0 0 Z " fill="#030609" transform="translate(718,563)"/>
<path d="M0 0 C1.98 0 3.96 0 6 0 C6 2.64 6 5.28 6 8 C5.01 8.495 5.01 8.495 4 9 C4.0825 8.2575 4.165 7.515 4.25 6.75 C3.92894816 3.21842973 2.64734383 2.23369636 0 0 Z " fill="#05080A" transform="translate(880,568)"/>
<path d="M0 0 C1.29640378 0.59393382 2.58698839 1.20057989 3.875 1.8125 C4.59429688 2.14894531 5.31359375 2.48539063 6.0546875 2.83203125 C8 4 8 4 10 7 C9.01 7 8.02 7 7 7 C7 6.34 7 5.68 7 5 C6.21625 4.690625 5.4325 4.38125 4.625 4.0625 C2 3 2 3 0 2 C0 1.34 0 0.68 0 0 Z " fill="#101416" transform="translate(609,541)"/>
<path d="M0 0 C2.31 0 4.62 0 7 0 C7 0.33 7 0.66 7 1 C6.05125 1.28875 5.1025 1.5775 4.125 1.875 C0.94788422 2.76825109 0.94788422 2.76825109 -1 5 C-1.99 4.67 -2.98 4.34 -4 4 C-3.67 3.34 -3.34 2.68 -3 2 C-2.01 2 -1.02 2 0 2 C0 1.34 0 0.68 0 0 Z " fill="#0A1319" transform="translate(450,422)"/>
</svg>
